<svg role="img" aria-label="Lumnia" xmlns="http://www.w3.org/2000/svg" viewBox="0 0 1081.000000 1097.000000"
 preserveAspectRatio="xMidYMid meet">
<g transform="translate(0.000000,1097.000000) scale(0.100000,-0.100000)"
fill="currentColor" stroke="none">
<path d="M1814 10427 c-21 -21 -54 -87 -99 -197 -38 -91 -81 -196 -97 -235
-16 -38 -35 -83 -42 -100 -8 -16 -28 -59 -44 -95 -128 -280 -148 -311 -225
-368 -116 -86 -301 -187 -588 -320 -256 -119 -276 -131 -323 -183 -25 -28 -46
-57 -46 -64 0 -30 88 -85 290 -183 478 -231 631 -315 699 -384 44 -45 109
-168 177 -333 20 -49 47 -112 59 -140 13 -27 39 -90 58 -140 51 -133 141 -315
177 -357 17 -21 41 -38 52 -38 46 0 121 86 158 180 29 75 225 511 280 626 33
66 79 142 102 169 91 103 407 282 828 468 73 33 171 98 180 121 5 15 0 31 -19
58 -30 41 -76 71 -176 113 -65 27 -164 76 -330 165 -38 20 -115 61 -170 90
-258 136 -328 187 -393 289 -38 59 -127 243 -193 399 -23 53 -51 118 -64 146
-13 28 -40 89 -60 136 -20 47 -40 92 -46 100 -5 8 -14 26 -21 40 -19 40 -50
70 -72 70 -12 0 -35 -15 -52 -33z M7005 6875 c-125 -12 -177 -18 -335 -40 -25
-4 -58 -10 -75 -15 -16 -4 -66 -16 -110 -25 -223 -48 -462 -130 -660 -226
-519 -252 -826 -513 -1162 -989 -37 -52 -146 -237 -198 -334 -176 -332 -320
-829 -375 -1291 -46 -389 -31 -814 42 -1175 99 -491 269 -890 546 -1285 259
-368 484 -580 877 -823 67 -41 234 -123 342 -168 330 -137 792 -234 1118 -234
181 0 470 37 670 85 372 91 739 296 1059 594 66 63 91 80 100 71 8 -8 11 -83
11 -248 0 -219 2 -240 20 -271 11 -19 33 -43 48 -55 28 -21 33 -21 740 -22
791 -1 768 -3 816 64 l22 31 -4 1578 c-4 1652 -4 1645 -47 1953 -25 173 -74
397 -120 542 -106 339 -137 418 -251 643 -157 311 -289 492 -569 779 -287 294
-572 486 -930 626 -74 29 -144 56 -155 60 -61 24 -287 85 -425 114 -322 69
-666 90 -995 61z m635 -1760 c157 -35 279 -84 410 -166 305 -189 477 -409 606
-772 120 -340 126 -796 15 -1167 -23 -80 -38 -115 -106 -253 -76 -151 -136
-238 -240 -342 -177 -177 -423 -310 -675 -366 -203 -44 -512 -46 -713 -3 -390
82 -706 323 -925 707 -86 151 -146 320 -179 502 -26 143 -25 490 1 630 74 400
252 723 524 948 191 158 370 244 602 291 111 22 146 24 365 20 169 -3 218 -7
315 -29z M1053 6689 c-17 -11 -41 -39 -52 -63 l-21 -43 2 -3024 c3 -2848 4
-3026 20 -3056 10 -17 32 -42 50 -55 l33 -23 785 4 c848 3 815 1 859 57 l21
27 -2 3053 -3 3052 -25 27 c-14 15 -44 36 -68 46 -41 18 -82 19 -805 19 -750
0 -762 -1 -794 -21z"/>
</g>
</svg>
